<?xml version="1.0" standalone="no"?>
<!DOCTYPE svg PUBLIC "-//W3C//DTD SVG 20010904//EN"
 "http://www.w3.org/TR/2001/REC-SVG-20010904/DTD/svg10.dtd">
<svg version="1.0" xmlns="http://www.w3.org/2000/svg"
 width="500.000000pt" height="500.000000pt" viewBox="0 0 500.000000 500.000000"
 preserveAspectRatio="xMidYMid meet">

<g transform="translate(0.000000,500.000000) scale(0.100000,-0.100000)"
fill="#000000" stroke="none">
<path d="M390 4260 l0 -390 240 0 240 0 0 -270 0 -270 270 0 270 0 0 -270 0
-270 275 0 275 0 0 -310 0 -310 -275 0 -275 0 0 -270 0 -270 -270 0 -270 0 0
-270 0 -270 -240 0 -240 0 0 -390 0 -390 510 0 510 0 0 390 0 390 275 0 275 0
0 270 0 270 535 0 535 0 0 -270 0 -270 270 0 270 0 0 -390 0 -390 520 0 520 0
0 390 0 390 -250 0 -250 0 0 270 0 270 -270 0 -270 0 0 270 0 270 -270 0 -270
0 0 310 0 310 270 0 270 0 0 270 0 270 270 0 270 0 0 270 0 270 250 0 250 0 0
390 0 390 -520 0 -520 0 0 -390 0 -390 -270 0 -270 0 0 -270 0 -270 -535 0
-535 0 0 270 0 270 -275 0 -275 0 0 390 0 390 -510 0 -510 0 0 -390z"/>
</g>
</svg>
